<?xml version="1.0" encoding="UTF-8"?>
<svg id="Layer_1" data-name="Layer 1" xmlns="http://www.w3.org/2000/svg" viewBox="0 0 200 200">
  <path d="M100,16.46c1.62,0,7.08.48,9.07,6.59l14.29,44c1.15,3.53,4.44,5.92,8.15,5.92h46.26c6.43,0,8.57,5.04,9.07,6.59.5,1.55,1.74,6.88-3.46,10.66l-37.42,27.19c-3,2.18-4.26,6.05-3.11,9.58l14.29,44c1.25,3.85.03,6.71-1.22,8.42-1.86,2.55-4.89,4.14-7.91,4.14-1.94,0-3.8-.64-5.54-1.9l-37.42-27.19c-1.5-1.09-3.27-1.64-5.04-1.64s-3.54.55-5.04,1.64l-37.42,27.19c-1.74,1.26-3.6,1.9-5.54,1.9-3.03,0-6.06-1.59-7.91-4.14-1.25-1.72-2.47-4.57-1.22-8.42l14.29-44c1.15-3.53-.11-7.4-3.11-9.58l-37.42-27.19c-5.2-3.78-3.97-9.11-3.46-10.66.5-1.55,2.64-6.59,9.07-6.59h46.26c3.71,0,7-2.39,8.15-5.92l14.29-44c1.99-6.11,7.44-6.59,9.07-6.59M100,7.89c-7.25,0-14.51,4.17-17.22,12.51l-14.29,44H22.23c-17.54,0-24.83,22.44-10.64,32.75l37.42,27.19-14.29,44c-4.13,12.71,5.96,23.78,17.28,23.78,3.54,0,7.2-1.08,10.58-3.54l37.42-27.19,37.42,27.19c3.38,2.46,7.04,3.54,10.58,3.54,11.31,0,21.41-11.08,17.28-23.78l-14.29-44,37.42-27.19c14.19-10.31,6.9-32.75-10.64-32.75h-46.26l-14.29-44c-2.71-8.34-9.96-12.51-17.22-12.51h0Z"/>
</svg>