<?xml version="1.0" encoding="UTF-8"?>
<svg id="Layer_1" data-name="Layer 1" xmlns="http://www.w3.org/2000/svg" viewBox="0 0 200 200">
  <path d="M194.44,90.83c-.74-.39-1.54-.67-2.37-.84l-61.02-12.15c-4.08-1.61-7.3-4.83-8.9-8.91l-12.15-61.01c-.16-.83-.45-1.62-.84-2.37C107.39,2.16,103.87.04,100,.04s-7.39,2.11-9.17,5.51c-.39.75-.67,1.54-.84,2.37l-12.15,61.01c-1.6,4.08-4.82,7.3-8.9,8.91l-61.02,12.15c-.83.16-1.62.45-2.37.84C2.16,92.61.04,96.13.04,100s2.12,7.4,5.53,9.18c.74.39,1.53.66,2.35.83l61.02,12.15c4.07,1.6,7.29,4.83,8.9,8.91l12.15,61.01c.16.83.45,1.62.84,2.37,1.78,3.4,5.3,5.51,9.17,5.51s7.39-2.11,9.17-5.51c.39-.75.67-1.54.84-2.37l12.15-61.01c1.6-4.07,4.82-7.3,8.9-8.91l61.02-12.15c.82-.16,1.61-.44,2.35-.83,3.41-1.78,5.53-5.3,5.53-9.18s-2.11-7.39-5.52-9.17Z"/>
</svg>